<?xml version="1.0" encoding="UTF-8"?>
<svg xmlns="http://www.w3.org/2000/svg" viewBox="0 0 246.15 186.27">
  <defs>
    <style>
      .cls-1 {
        fill: none;
        stroke: #231f20;
        stroke-miterlimit: 10;
        stroke-width: .3px;
      }
    </style>
  </defs>
  <g id="Layer_2" data-name="Layer 2">
    <path class="cls-1" d="M31.47,29.44l6.63,47.56s39.22-2.84,34.11-22.36c0,0-3.41-20.08-40.74-25.2Z"/>
    <path class="cls-1" d="M46.75,48.14l2.4,9.98s9.85-.95,6.32-4.89c-3.6-1.93-8.72-5.08-8.72-5.08Z"/>
    <polyline class="cls-1" points="32.29 35.37 38.54 34.81 38.54 39.04 32.87 39.48"/>
    <polyline class="cls-1" points="33.93 47.12 39.74 46.62 41.19 50.98 34.77 53.13"/>
    <polyline class="cls-1" points="35.63 59.26 41.19 57.93 42.96 62.29 36.26 63.79"/>
    <polyline class="cls-1" points="37.02 69.25 43.47 68.66 45.49 73.09 37.7 74.16"/>
    <path class="cls-1" d="M48.28,33.38l-.52-9.62h-7.33l-1.14-6.06s10.43-2.65,22.93,.69v6.65l-7.14-.9,1.15,12.73"/>
    <path class="cls-1" d="M51.49,74.77l.57,11.89s23.66,18.21,38.25-5.29l-8.54-52.5h6.73s3.69-4.17,.09-7.58l-22.26,.63s-2.4,4.55,1.58,7.2h4.48l6.32,45.92-16.11,2.53-1.18-6.16"/>
    <polyline class="cls-1" points="68.56 21.86 67.94 13.15 85.66 21.38"/>
    <path class="cls-1" d="M90.16,24.85l31.49,50.16-6.44-65.08-10.61,.95-3.22-10.23s15.73,7.39,27.57-.38l1.52,19.14h-7.67s6.73,61.01,6.73,61.01l-9.38,7.11-37.8-54.55"/>
    <polyline class="cls-1" points="83.17 88.61 102.58 87.52 100.2 58.74"/>
    <path class="cls-1" d="M94.02,30.99s6.74-14.81,23.13-1.55"/>
    <polyline class="cls-1" points="124.49 34.81 135.17 45.74 131.01 49.02 125.69 45.63"/>
    <line class="cls-1" x1="115.09" y1="64.69" x2="112.04" y2="37.12"/>
    <path class="cls-1" d="M104.75,48.06c.14,.55-3.41-16.91,13.37-9.14"/>
    <polyline class="cls-1" points="126.81 55.86 136.31 55.86 129.31 78.46"/>
    <path class="cls-1" d="M129.52,80.41s-11.4,9.54-16.67,10.42c-9.26,1.55-21.63,5.96-25.01-24.65"/>
    <path class="cls-1" d="M101.44,73.67s4.26,9.71,11.42,3.33"/>
    <line class="cls-1" x1="114.11" y1="55.86" x2="109.63" y2="55.86"/>
    <polyline class="cls-1" points="123.36 25.84 154.25 25.84 154.25 38.83 141.48 39.66 142.73 47.96 167.89 46.55 167.89 57.9 142.52 60.68 143.56 68.09 165.81 67.06 166.64 83.43 129.52 81.17"/>
    <polyline class="cls-1" points="75.96 172.86 116.01 176.83 115.25 159.15 95.01 160.27 94.07 152.27 117.15 149.26 117.15 137.01 94.26 138.53 93.12 129.57 104.74 128.68 104.74 114.66 76.63 114.66 76.63 128.7"/>
    <line class="cls-1" x1="154.25" y1="47.32" x2="154.25" y2="38.83"/>
    <polyline class="cls-1" points="154.25 43.06 154.25 21.86 189.98 21.86 190.93 24.02 192.32 29.35 192.32 87.52 154.25 87.52 154.25 83.54"/>
    <line class="cls-1" x1="154.25" y1="67.6" x2="154.25" y2="59.4"/>
    <polyline class="cls-1" points="174.74 87.52 174.74 94.62 191.03 94.62 191.03 87.52"/>
    <polyline class="cls-1" points="192.32 42.5 206.68 97.27 222.01 97.27 222.01 9.17 208.29 9.17 208.29 85.53 186.74 9.17 174.74 9.17 174.74 21.86"/>
    <path class="cls-1" d="M222.65,75.11s7.17,6.76,7.11-3.22c-.07-9.98,2.65-10.23,2.65-10.23l-10.39,2.53"/>
    <path class="cls-1" d="M222.01,42.3c-.03-.86,.06-2,.4-2.82,1.03-2.48,3.16-4.32,5.5-4.59s4.79,1.12,5.96,3.52c.8,1.64,3.57,4.06,3.75,5.94l-.13-18.06c-.99-3.26-5.05-7.42-7.84-8.5s-5.85-.97-8.73-.27c-9.81,2.37-18.14,11.77-20.53,23.19-.82,3.92-.82,8.58,1.65,11.39,1.05,1.2,2.45,1.92,3.87,2.34,4.05,1.22,8.35,.28,12.37-1.05s8.01-3.08,12.18-3.47,8.71,.79,11.51,4.44c2.12,2.76,2.98,6.59,2.98,10.3-.01,4.83-.13,12.46-2.98,15.94-3.53,4.3-14.7,5.68-19.79,5.68"/>
    <g>
      <polyline class="cls-1" points="182.14 114.92 188.62 113.7 209.87 175.59 209.87 113.7 223.39 113.7 223.39 185.11 208.28 185.11 194.12 140.71 194.12 169.79"/>
      <path class="cls-1" d="M224.02,167.15s7.07,5.48,7.01-2.61c-.07-8.09,2.61-8.29,2.61-8.29l-10.25,2.05"/>
      <path class="cls-1" d="M223.39,140.56c-.03-.7,.06-1.62,.39-2.29,1.01-2.01,3.12-3.5,5.42-3.72s4.72,.91,5.88,2.85c.79,1.33,3.52,3.29,3.69,4.81l-.12-14.64c-.98-2.64-4.97-6.01-7.73-6.89s-5.76-.79-8.61-.22c-9.67,1.92-17.88,9.54-20.24,18.8-.81,3.18-.81,6.96,1.63,9.23,1.04,.97,2.42,1.55,3.82,1.9,4,.99,8.23,.23,12.2-.86s7.89-2.49,12.01-2.81c4.11-.32,8.58,.64,11.35,3.6,2.09,2.23,2.94,5.34,2.93,8.35-.01,3.91-.13,10.1-2.94,12.92-3.48,3.49-14.5,4.6-19.51,4.61"/>
    </g>
    <polyline class="cls-1" points="4.18 35.51 26.91 56.29 13.28 78.2"/>
    <g>
      <polygon class="cls-1" points="171.12 30.39 171.12 81.93 180.42 65.86 188.92 52.31 171.12 30.39"/>
      <line class="cls-1" x1="26.92" y1="56.26" x2="188.92" y2="52.31"/>
    </g>
    <polygon class="cls-1" points="11.38 34.75 3.99 43.84 .21 40.43 7.41 31.34 11.38 34.75"/>
    <polygon class="cls-1" points="18.14 81.93 8.67 74.73 11.95 70.37 22.56 78.52 18.14 81.93"/>
    <polyline class="cls-1" points="3.99 43.84 12.02 43.72 19.22 34.62 11.38 34.75"/>
    <polyline class="cls-1" points="11.95 70.37 11.32 62.6 20.79 69.8 22.56 78.52"/>
    <polyline class="cls-1" points="11.25 133.41 32.89 153.19 19.91 174.06"/>
    <line class="cls-1" x1="32.9" y1="153.17" x2="171.29" y2="151.29"/>
    <polygon class="cls-1" points="18.11 132.69 11.07 141.34 7.47 138.1 14.32 129.44 18.11 132.69"/>
    <polygon class="cls-1" points="24.54 177.61 15.52 170.75 18.65 166.6 28.75 174.36 24.54 177.61"/>
    <polyline class="cls-1" points="11.07 141.34 18.71 141.22 25.57 132.57 18.11 132.69"/>
    <polyline class="cls-1" points="18.65 166.6 18.05 159.2 27.07 166.06 28.75 174.36"/>
    <path class="cls-1" d="M104.74,120.15l8.38-7.46,16.07,11.3s-3.56,31.17,1.71,57.15l-2.08,.1c-5.03,.24-9.36-3.98-9.85-9.61l-.58-6.72c-.32-3.69-3.08-6.51-6.38-6.51h0l.03,.88"/>
    <path class="cls-1" d="M109.44,150.26s9.98,9.5,21.45-.44"/>
    <polyline class="cls-1" points="108.33 137.6 116.97 126.59 124.62 153.47"/>
    <line class="cls-1" x1="101.35" y1="128.94" x2="101.35" y2="138.06"/>
    <line class="cls-1" x1="102.15" y1="151.22" x2="102.15" y2="159.87"/>
    <polyline class="cls-1" points="102.15 175.46 102.15 182.35 115.15 181.67 114.59 176.69"/>
    <path class="cls-1" d="M182.14,114.92c0,7.36-7.53,20.71-11.67,15.14-3.95-5.32-11.63-9.31-13.33-13.33-2.86-6.78,5.97-9.26,13.33-9.26s11.67,.09,11.67,7.45Z"/>
    <line class="cls-1" x1="169.36" y1="119.69" x2="175.29" y2="112.81"/>
    <line class="cls-1" x1="167.08" y1="111.63" x2="175.87" y2="120.42"/>
    <path class="cls-1" d="M167.08,134.76c12.71,23.34-6.61,30.2-6.61,30.2l33.65-7.45-27.04-22.74Z"/>
    <polyline class="cls-1" points="195.27 133.08 205.72 131.38 202.76 116.02 189.82 117.22"/>
    <line class="cls-1" x1="197.77" y1="140.37" x2="201.9" y2="140.03"/>
    <line class="cls-1" x1="202.76" y1="154.9" x2="209.87" y2="154.36"/>
    <line class="cls-1" x1="189.49" y1="181.25" x2="206.81" y2="180.5"/>
    <line class="cls-1" x1="188.67" y1="170.91" x2="209.65" y2="168.96"/>
  </g>
  <g id="Layer_3" data-name="Layer 3">
    <path class="cls-1" d="M42.52,120.15l9.64,56.02s45.78,1.2,41.57-26.51c-4.22-27.71-51.2-29.52-51.2-29.52Z"/>
    <path class="cls-1" d="M59.09,155.39l5.12-15.36,9.04,14.76s-7.53-3.31-14.16,.6Z"/>
    <path class="cls-1" d="M129.68,174.43s34.28,1.19,30.73-23.73c-3.55-24.92-31.48-24.11-31.48-24.11"/>
    <path class="cls-1" d="M131.22,155.85l4.32-13.82,7.62,13.27s-6.35-2.98-11.93,.54Z"/>
    <path class="cls-1" d="M138.73,173.77v12.34h51.23l-1.84-19.06c-10.86,13.68-30.39,7.39-30.39,7.39l.89-61.75c-8.14,11.34-19.89,0-19.89,0v14.25"/>
  </g>
</svg>